<svg width="1200" height="300" viewBox="0 0 1200 300" fill="none" xmlns="http://www.w3.org/2000/svg">
<g clip-path="url(#clip0_1_2)">
<rect width="1200" height="300" rx="8" fill="#101414"/>
<path d="M750.112 431.085C738.453 434.539 728.936 434.521 721.561 431.032C714.259 427.41 709.274 421.099 706.608 412.099C704.033 403.405 704.858 395.485 709.082 388.338C713.275 381.088 720.844 375.843 731.787 372.601C736.389 371.238 740.274 370.643 743.441 370.818C746.71 370.962 749.522 371.631 751.878 372.824C750.162 369.661 747.816 367.186 744.839 365.398C741.862 363.609 738.11 362.774 733.583 362.891L695.537 374.161L689.812 354.831L768.051 331.655C774.29 329.807 778.684 328.116 781.233 326.583C783.855 324.916 785.684 323.206 786.722 321.452C787.586 319.861 787.995 318.238 787.95 316.583C788.007 314.898 787.778 313.185 787.263 311.447C786.384 308.481 784.671 306.263 782.121 304.793C779.644 303.191 776.616 302.919 773.036 303.98C769.764 304.949 767.281 306.519 765.587 308.689C767.58 308.655 769.35 309.188 770.9 310.286C772.551 311.355 773.68 312.912 774.285 314.957C775.103 317.718 774.783 320.205 773.325 322.417C771.968 324.599 769.347 326.265 765.461 327.417C761.268 328.659 757.631 328.401 754.552 326.643C751.544 324.753 749.42 321.711 748.178 317.518C747.117 313.938 747.14 310.26 748.247 306.484C749.425 302.575 751.772 299.043 755.287 295.888C758.874 292.6 763.736 290.047 769.873 288.23C776.521 286.261 782.473 285.888 787.731 287.112C793.09 288.305 797.598 290.753 801.253 294.454C804.908 298.155 807.568 302.818 809.235 308.443C810.628 313.147 811.073 317.466 810.569 321.397C810.137 325.196 808.883 328.85 806.807 332.357C805.738 334.009 804.123 335.878 801.96 337.965C799.766 339.949 796.643 341.987 792.59 344.078C788.537 346.168 783.186 348.198 776.538 350.167L759.203 355.302C761.835 356.302 764.18 357.833 766.237 359.894C768.396 361.924 769.914 364.422 770.793 367.388C772.354 365.146 774.604 362.978 777.543 360.883C780.483 358.789 784.305 357.045 789.01 355.651C799.032 352.682 807.557 353.105 814.583 356.92C821.712 360.705 826.578 366.995 829.184 375.79C831.759 384.484 831.037 392.374 827.017 399.46C822.998 406.547 815.056 411.848 803.192 415.362C797.056 417.179 791.48 417.885 786.465 417.48C781.45 417.074 777.056 415.761 773.284 413.541C771.401 417.325 768.533 420.789 764.681 423.933C760.9 426.944 756.044 429.328 750.112 431.085ZM746.329 412.681C751.239 411.227 754.566 409.129 756.313 406.387C758.059 403.644 758.417 400.535 757.387 397.057C756.266 393.273 754.191 390.773 751.161 389.557C748.1 388.239 744.371 388.231 739.973 389.533C734.962 391.018 731.598 393.182 729.882 396.027C728.136 398.769 727.777 401.879 728.807 405.356C729.928 409.14 732.004 411.64 735.034 412.857C738.167 414.042 741.932 413.984 746.329 412.681ZM795.881 398.003C800.79 396.549 804.118 394.451 805.865 391.709C807.611 388.967 807.969 385.857 806.939 382.379C805.818 378.595 803.743 376.095 800.713 374.879C797.754 373.53 794.179 373.477 789.985 374.719C784.872 376.234 781.421 378.48 779.633 381.457C777.814 384.332 777.39 387.406 778.359 390.678C779.48 394.462 781.556 396.963 784.586 398.179C787.718 399.365 791.483 399.306 795.881 398.003ZM893.795 319.94C896.006 327.406 895.258 334.08 891.549 339.962C887.942 345.814 881.588 350.088 872.485 352.785C869.826 353.572 867.311 354.095 864.94 354.352C862.671 354.579 860.51 354.607 858.457 354.437C861.892 359.649 866.257 363.307 871.553 365.409C876.92 367.379 882.458 368.798 888.166 369.666L882.249 391.944C870.14 389.746 859.703 385.495 850.938 379.192C842.174 372.888 836.08 363.958 832.656 352.401C830.263 344.321 829.767 337.014 831.169 330.48C832.541 323.844 835.534 318.174 840.148 313.47C844.864 308.735 850.904 305.278 858.268 303.096C867.37 300.4 875.022 300.692 881.222 303.973C887.423 307.254 891.613 312.576 893.795 319.94ZM862.516 319.693C858.835 320.784 856.028 322.95 854.096 326.192C852.164 329.435 851.618 333.601 852.458 338.692C855.307 339.295 858.214 339.157 861.18 338.278C865.884 336.885 869.104 334.985 870.839 332.58C872.574 330.175 873.063 327.694 872.306 325.137C871.579 322.682 870.302 321.002 868.477 320.097C866.651 319.192 864.664 319.057 862.516 319.693ZM952.591 371.108C942.773 374.016 934.176 373.726 926.801 370.237C919.529 366.717 914.62 360.662 912.076 352.071C909.834 344.503 910.501 337.741 914.077 331.787C917.725 325.7 923.538 321.475 931.515 319.112C938.777 316.962 944.637 316.839 949.095 318.745C953.655 320.62 956.708 324.165 958.253 329.381C958.738 331.018 958.982 332.781 958.986 334.671C958.989 336.561 958.851 338.16 958.57 339.467L942.866 342.784C942.942 341.537 942.813 340.352 942.48 339.227C941.51 335.954 939.287 334.833 935.81 335.863C933.866 336.438 932.376 337.603 931.338 339.357C930.269 341.008 930.099 343.061 930.826 345.516C931.765 348.686 933.873 350.732 937.149 351.652C940.426 352.573 944.928 352.185 950.655 350.489C956.996 348.61 961.159 345.764 963.144 341.95C965.232 338.105 965.768 333.719 964.753 328.791L984.85 322.838C986.925 328.342 989.62 331.994 992.934 333.793C996.351 335.562 999.798 335.932 1003.27 334.902C1007.47 333.66 1010.04 331.452 1010.99 328.278C1011.91 325.001 1011.78 321.369 1010.6 317.38C1008.54 310.425 1004.21 304.643 997.619 300.032C991.024 295.422 983.187 292.626 974.108 291.644L900.624 313.411L894.898 294.082L975.746 270.133C981.269 268.497 985.095 267.142 987.224 266.066C989.352 264.99 990.873 263.928 991.786 262.879C992.976 261.637 993.608 260.392 993.684 259.146C993.76 257.9 993.556 256.459 993.071 254.822C992.223 251.959 990.638 249.424 988.316 247.22C986.096 244.985 983.203 242.727 979.635 240.446L993.71 225.431C1000.54 230.083 1005.52 234.503 1008.65 238.693C1011.89 242.852 1014.26 247.489 1015.78 252.602C1016.47 254.955 1016.85 257.904 1016.89 261.449C1016.91 264.892 1015.97 268.286 1014.07 271.631C1012.96 273.517 1011.53 275.274 1009.79 276.903C1008.15 278.501 1006.04 280.016 1003.46 281.448C1011.09 284.304 1017.42 288.214 1022.45 293.176C1027.48 298.139 1031.09 304.302 1033.27 311.666C1033.97 314.018 1034.48 316.314 1034.81 318.552C1037.8 320.003 1040.74 320.912 1043.63 321.28C1046.59 321.515 1049.66 321.163 1052.83 320.224C1058.55 318.527 1062.48 315.64 1064.61 311.56C1066.74 307.481 1066.97 302.629 1065.31 297.004C1063.25 290.049 1059.56 284.744 1054.25 281.088C1049.04 277.402 1042.94 274.816 1035.93 273.331L1028.88 275.421L1023.15 256.092L1052.45 247.412L1056.54 261.219C1063.95 263.697 1070.41 267.29 1075.92 271.999C1081.53 276.677 1085.54 283.056 1087.93 291.136C1090.05 298.295 1090.6 305.03 1089.58 311.34C1088.55 317.651 1085.8 323.194 1081.32 327.97C1076.91 332.614 1070.56 336.163 1062.28 338.617C1057.06 340.162 1051.98 340.834 1047.02 340.632C1042.14 340.299 1037.36 339.378 1032.69 337.87C1030.84 341.756 1028.23 344.976 1024.87 347.528C1021.48 349.979 1017.69 351.825 1013.5 353.067C1007.05 354.976 1001.34 355.61 996.37 354.969C991.397 354.329 986.514 352.493 981.723 349.463C978.67 354.928 974.925 359.375 970.489 362.803C966.023 366.128 960.057 368.896 952.591 371.108ZM1164.28 265.183C1168.01 277.762 1167.47 288.544 1162.68 297.529C1157.99 306.483 1149.92 312.656 1138.47 316.049C1128.14 319.109 1119.48 319.002 1112.51 315.729C1105.5 312.354 1100.75 306.473 1098.27 298.086C1096.39 291.745 1096.63 285.999 1099 280.848C1101.34 275.594 1105.63 272.044 1111.87 270.196C1116.98 268.681 1121.11 268.736 1124.26 270.361C1127.39 271.884 1129.48 274.435 1130.54 278.015C1131.51 281.288 1131.42 284.204 1130.29 286.765C1129.13 289.223 1126.96 290.922 1123.79 291.861C1122.36 292.285 1120.82 292.52 1119.16 292.565C1117.47 292.508 1115.89 292.033 1114.4 291.139C1115.16 293.696 1116.82 295.929 1119.39 297.838C1122.06 299.717 1125.74 299.96 1130.45 298.566C1136.38 296.809 1140.32 293.584 1142.27 288.891C1144.22 284.198 1144.19 278.476 1142.19 271.726C1139.49 262.624 1134.84 256.661 1128.21 253.839C1125.89 252.748 1123.35 252.055 1120.59 251.759C1117.93 251.433 1114.64 251.575 1110.7 252.184C1106.74 252.692 1101.74 253.839 1095.7 255.626L1054.9 267.714L1049.17 248.384L1094.12 235.07C1101.99 232.737 1108.79 231.279 1114.52 230.696C1120.31 229.981 1125.39 230.034 1129.75 230.856C1134.21 231.648 1138.35 233.037 1142.16 235.022C1152.55 240.402 1159.92 250.455 1164.28 265.183Z" fill="#1A1F25"/>
<path d="M118.263 370.161C106.297 373.706 94.6639 374.148 83.363 371.488C72.1702 368.629 62.3042 363.208 53.7651 355.224C45.3794 347.195 39.3916 337.121 35.8017 325.002C32.2117 312.882 31.5393 301.317 33.7844 290.306C36.1375 279.096 40.945 269.412 48.207 261.253C55.4234 252.941 64.6312 247.127 75.8302 243.809C84.8815 241.128 93.8104 240.569 102.617 242.133C111.378 243.542 119.321 246.696 126.446 251.594L108.041 189.463C106.996 185.934 107.229 182.778 108.741 179.994C110.406 177.165 112.926 175.25 116.301 174.251C119.83 173.205 122.986 173.439 125.77 174.95C128.554 176.462 130.468 178.982 131.513 182.51L162.596 287.444C166.186 299.563 166.574 311.296 163.761 322.642C161.101 333.943 155.856 343.84 148.026 352.334C140.15 360.674 130.229 366.616 118.263 370.161ZM112.129 349.45C119.953 347.133 126.388 343.224 131.433 337.725C136.434 332.072 139.721 325.424 141.296 317.783C142.87 310.141 142.453 302.254 140.045 294.124C137.591 285.839 133.645 278.998 128.208 273.6C122.771 268.202 116.439 264.571 109.212 262.707C101.939 260.689 94.3913 260.839 86.5673 263.157C78.8967 265.429 72.4845 269.414 67.3307 275.113C62.2849 280.612 58.8754 287.129 57.1021 294.663C55.4822 302.151 55.8992 310.037 58.3531 318.322C60.7616 326.452 64.707 333.294 70.1895 338.845C75.8254 344.351 82.2796 348.113 89.5521 350.131C96.9326 351.949 104.458 351.723 112.129 349.45ZM282.135 321.62C269.402 325.392 257.255 326.07 245.692 323.654C234.238 321.04 224.264 315.817 215.77 307.987C207.385 299.958 201.352 289.731 197.671 277.304C193.944 264.725 193.281 252.906 195.679 241.85C198.186 230.594 203.323 220.896 211.09 212.755C218.812 204.46 228.733 198.518 240.853 194.928C252.819 191.383 263.893 191.023 274.074 193.848C284.21 196.519 292.889 201.875 300.11 209.915C307.438 217.756 312.898 227.737 316.488 239.856C317.351 242.771 317.081 245.521 315.678 248.106C314.229 250.538 311.97 252.208 308.902 253.117L221.457 279.019C226.28 289.105 233.68 296.341 243.657 300.728C253.742 304.916 264.614 305.284 276.273 301.83C281.029 300.421 285.612 298.146 290.021 295.004C294.538 291.664 297.99 288.388 300.377 285.178C302.178 282.809 304.383 281.238 306.991 280.466C309.706 279.495 312.312 279.557 314.806 280.654C318.095 282.183 320.226 284.305 321.197 287.021C322.169 289.737 321.646 292.478 319.628 295.245C315.639 300.932 310.119 306.239 303.068 311.164C296.17 316.044 289.192 319.53 282.135 321.62ZM246.715 214.718C235.362 218.08 227.166 223.929 222.126 232.264C217.085 240.599 215.121 250.025 216.234 260.542L292.863 237.843C288.574 228.434 282.43 221.493 274.43 217.021C266.385 212.395 257.147 211.628 246.715 214.718ZM403.656 284.372C398.9 285.781 394.468 284.34 390.361 280.05L311.107 191.639C309.107 189.394 308.204 186.909 308.397 184.181C308.698 181.255 310.102 178.67 312.608 176.426C314.807 174.273 317.347 173.27 320.227 173.418C323.261 173.521 325.855 174.671 328.008 176.87L393.61 251.304L407.629 153.286C408.237 150.269 409.785 147.891 412.274 146.153C414.916 144.369 417.899 143.736 421.223 144.253C424.348 144.662 426.757 146.034 428.45 148.37C430.143 150.705 430.762 153.359 430.307 156.33L411.992 273.643C411.19 279.387 408.411 282.964 403.656 284.372ZM542.14 244.603C529.407 248.375 517.26 249.053 505.697 246.637C494.243 244.023 484.269 238.8 475.775 230.97C467.39 222.941 461.357 212.714 457.676 200.287C453.949 187.708 453.286 175.889 455.684 164.833C458.191 153.577 463.328 143.879 471.095 135.738C478.817 127.443 488.738 121.501 500.858 117.911C512.824 114.366 523.898 114.006 534.079 116.831C544.215 119.502 552.894 124.858 560.115 132.898C567.443 140.739 572.903 150.72 576.493 162.839C577.356 165.754 577.086 168.504 575.683 171.089C574.234 173.521 571.975 175.191 568.907 176.1L481.462 202.002C486.285 212.088 493.685 219.324 503.662 223.711C513.747 227.899 524.619 228.267 536.278 224.813C541.034 223.404 545.616 221.129 550.026 217.987C554.543 214.647 557.995 211.371 560.382 208.161C562.183 205.792 564.388 204.221 566.995 203.449C569.711 202.478 572.317 202.54 574.811 203.637C578.1 205.166 580.231 207.288 581.202 210.004C582.174 212.72 581.651 215.461 579.633 218.228C575.644 223.915 570.124 229.222 563.073 234.147C556.175 239.027 549.197 242.513 542.14 244.603ZM506.72 137.701C495.367 141.063 487.171 146.912 482.131 155.247C477.09 163.582 475.126 173.008 476.239 183.525L552.868 160.826C548.579 151.417 542.435 144.476 534.435 140.004C526.39 135.378 517.152 134.611 506.72 137.701ZM655.567 210.003C648.817 212.003 642.288 211.934 635.982 209.797C629.675 207.66 624.133 203.879 619.355 198.452C614.532 192.872 610.893 185.94 608.439 177.656L571.222 52.0124C570.222 48.6373 570.478 45.5578 571.989 42.7739C573.501 39.9899 575.944 38.0981 579.319 37.0984C582.694 36.0986 585.774 36.3545 588.558 37.8661C591.342 39.3777 593.234 41.821 594.233 45.196L631.451 170.84C633.132 176.516 635.592 180.877 638.83 183.923C642.069 186.968 645.376 187.991 648.751 186.992L654.503 185.287C657.572 184.379 660.344 184.725 662.821 186.328C665.452 187.885 667.267 190.351 668.267 193.726C669.267 197.101 668.627 200.294 666.349 203.305C664.07 206.316 660.629 208.504 656.027 209.867L655.567 210.003ZM745.017 184.508C732.591 188.189 720.827 188.753 709.725 186.201C698.577 183.496 688.833 178.206 680.493 170.33C672.261 162.256 666.304 152.005 662.623 139.579C658.897 126.999 658.31 115.158 660.862 104.056C663.522 92.7556 668.812 83.0117 676.733 74.8249C684.609 66.4847 694.76 60.4741 707.186 56.7933C719.459 53.1579 731.169 52.6929 742.317 55.3982C753.419 57.9502 763.086 63.2634 771.318 71.3378C779.658 79.2134 785.692 89.441 789.418 102.021C793.099 114.447 793.686 126.288 791.179 137.543C788.627 148.645 783.414 158.366 775.538 166.707C767.617 174.893 757.443 180.827 745.017 184.508ZM738.882 163.798C746.86 161.435 753.371 157.503 758.417 152.004C763.463 146.504 766.719 140.033 768.186 132.59C769.805 125.101 769.366 117.138 766.866 108.701C764.367 100.263 760.399 93.3453 754.962 87.9472C749.633 82.3503 743.355 78.6197 736.128 76.7555C728.901 74.8914 721.298 75.1408 713.321 77.5038C705.344 79.8668 698.832 83.7981 693.786 89.2977C688.74 94.7972 685.43 101.368 683.856 109.01C682.236 116.498 682.676 124.461 685.175 132.899C687.674 141.337 691.642 148.254 697.079 153.652C702.516 159.051 708.849 162.682 716.076 164.546C723.303 166.41 730.905 166.161 738.882 163.798ZM870.646 204.866C867.27 205.866 864.092 205.556 861.109 203.936C858.325 202.425 856.433 199.981 855.433 196.606L824.351 91.6732C820.914 79.5082 820.526 67.7754 823.186 56.4745C825.846 45.1737 831.113 35.3532 838.989 27.0129C846.819 18.5193 856.717 12.5002 868.683 8.95569C880.803 5.36574 892.459 5.00015 903.652 7.85893C914.799 10.5643 924.566 15.9315 932.951 23.9604C941.49 31.944 947.555 41.9955 951.145 54.115C954.735 66.2345 955.353 77.8992 953 89.1091C950.755 100.12 946.024 109.782 938.808 118.094C931.546 126.252 922.315 131.99 911.116 135.307C902.065 137.988 893.159 138.624 884.398 137.214C875.745 135.606 867.779 132.375 860.501 127.522L878.905 189.654C879.905 193.029 879.649 196.108 878.137 198.892C876.671 201.83 874.174 203.821 870.646 204.866ZM900.379 115.96C908.203 113.642 914.638 109.734 919.684 104.234C924.684 98.5813 927.995 92.0106 929.614 84.5222C931.342 76.8349 931.002 68.9258 928.594 60.795C926.14 52.5108 922.117 45.6924 916.527 40.3397C911.044 34.7882 904.69 31.0804 897.463 29.2162C890.19 27.1986 882.642 27.3486 874.818 29.6662C867.147 31.9383 860.735 35.9236 855.581 41.622C850.536 47.1216 847.225 53.6923 845.651 61.3342C844.031 68.8226 844.448 76.7089 846.902 84.9931C849.31 93.1239 853.256 99.9651 858.738 105.517C864.175 110.915 870.53 114.623 877.803 116.64C885.183 118.459 892.709 118.232 900.379 115.96ZM1064.17 89.9699C1051.44 93.7416 1039.29 94.4196 1027.73 92.004C1016.28 89.3895 1006.3 84.1672 997.808 76.3371C989.422 68.3081 983.389 58.0805 979.708 45.6542C975.982 33.0744 975.318 21.2563 977.717 10.1998C980.223 -1.05562 985.36 -10.754 993.128 -18.8954C1000.85 -27.1902 1010.77 -33.1326 1022.89 -36.7225C1034.86 -40.267 1045.93 -40.627 1056.11 -37.8024C1066.25 -35.1312 1074.93 -29.7754 1082.15 -21.7352C1089.48 -13.8938 1094.94 -3.91335 1098.53 8.20614C1099.39 11.121 1099.12 13.8709 1097.72 16.456C1096.27 18.8877 1094.01 20.558 1090.94 21.4668L1003.49 47.369C1008.32 57.4545 1015.72 64.6908 1025.69 69.0779C1035.78 73.2661 1046.65 73.6334 1058.31 70.1798C1063.07 68.7711 1067.65 66.4959 1072.06 63.3542C1076.58 60.0137 1080.03 56.7384 1082.41 53.5284C1084.22 51.1592 1086.42 49.5884 1089.03 48.8159C1091.74 47.8445 1094.35 47.9072 1096.84 49.0039C1100.13 50.5326 1102.26 52.6549 1103.23 55.3709C1104.21 58.0868 1103.68 60.8282 1101.67 63.5951C1097.68 69.2822 1092.16 74.5886 1085.11 79.5141C1078.21 84.3943 1071.23 87.8795 1064.17 89.9699ZM1028.75 -16.9325C1017.4 -13.5697 1009.2 -7.72097 1004.16 0.613798C999.123 8.94857 997.159 18.3745 998.272 28.8915L1074.9 6.193C1070.61 -3.21634 1064.47 -10.1571 1056.47 -14.6292C1048.42 -19.2548 1039.18 -20.0226 1028.75 -16.9325ZM1159.19 60.8232C1151.52 63.0953 1146.55 60.3961 1144.28 52.7256L1113.81 -50.1366C1111.53 -57.8072 1114.23 -62.7785 1121.9 -65.0507C1129.58 -67.3228 1134.55 -64.6236 1136.82 -56.953L1138.11 -52.5808C1141.13 -59.3135 1145.48 -65.1909 1151.16 -70.2132C1157 -75.2809 1163.84 -78.9735 1171.66 -81.2911C1180.87 -84.0176 1188.15 -84.5057 1193.5 -82.7553C1198.97 -81.2037 1201.78 -78.1979 1201.93 -73.7377C1202.12 -70.2888 1201.22 -67.6866 1199.24 -65.9311C1197.21 -64.329 1194.57 -63.3804 1191.32 -63.0852C1180.91 -62.1712 1172.05 -59.7117 1164.72 -55.7066C1157.4 -51.7015 1152.12 -46.7161 1148.88 -40.7505C1145.79 -34.8304 1145.29 -28.3418 1147.38 -21.2849L1167.29 45.9092C1169.56 53.5798 1166.86 58.5511 1159.19 60.8232Z" fill="#8C95A2" fill-opacity="0.04"/>
<path d="M62.841 -8.8006C58.6989 -7.57365 55.5198 -5.63073 53.3038 -2.97183C51.1956 -0.511785 50.7096 2.63588 51.8457 6.47116C53.1635 10.9201 56.2116 13.605 60.9899 14.5258C64.0752 13.1112 67.382 11.8814 70.9105 10.8362C87.1721 6.01931 100.911 6.20501 112.126 11.3933C123.495 16.5362 131.855 25.3237 137.206 37.7558L102.689 47.9803C100.632 44.4177 97.4306 41.7783 93.0842 40.0621C88.6923 38.1924 83.8117 38.0529 78.4423 39.6433C72.3059 41.461 67.8568 45.0317 65.095 50.3553C62.3333 55.6789 61.9749 61.7925 64.0198 68.696C66.1101 75.7529 69.6864 80.7844 74.7487 83.7904C79.9643 86.751 85.717 87.2997 92.0069 85.4366C97.0695 83.937 100.979 81.3606 103.735 77.7074C106.599 73.8554 107.999 69.8527 107.937 65.6993L142.455 55.4748C145.136 69.0317 142.649 81.199 134.995 91.9767C127.539 102.862 116.141 110.577 100.8 115.122C89.2942 118.53 78.5868 119.282 68.678 117.378C58.968 115.582 50.6076 111.3 43.5968 104.532C36.6314 97.9181 31.5583 89.2416 28.3773 78.5028C25.7417 69.605 25.1656 61.1817 26.6491 53.233C28.2861 45.2389 31.7667 38.1171 37.091 31.8675C24.9493 28.6223 17.1971 21.3235 13.8344 9.97108C11.1533 0.919814 12.3385 -7.19082 17.3902 -14.3608C22.5498 -21.7297 30.8825 -27.1182 42.3883 -30.5264L60.7977 -35.9795L56.0262 -52.0877L-22.4436 -28.8438L-31.3731 -58.9891L111.069 -101.182L119.999 -71.0372L90.5437 -62.3122L102.881 -20.6611L62.841 -8.8006ZM47.8205 -81.1958C38.6223 -89.151 31.4694 -94.7083 26.3617 -97.8677C21.2541 -101.027 16.5014 -102.707 12.1037 -102.906C7.50721 -103.213 1.60378 -102.299 -5.60655 -100.163L-17.5726 -96.6183L-26.1612 -125.613L-14.8855 -128.953C-1.95354 -132.617 8.68 -134.181 17.0151 -133.647C25.3048 -133.265 34.3045 -129.924 44.0141 -123.622C53.5249 -117.428 66.0694 -106.626 81.6477 -91.2159L47.8205 -81.1958ZM313.978 -128.497L291.427 -121.816L332.938 18.3247L296.58 29.0945L273.677 -48.2247L243.992 -39.4316L247.196 -28.6161C252.058 -12.2011 251.58 1.95781 245.761 13.8607C240.049 25.5647 229.14 33.8024 213.032 38.5739C203.06 41.5276 193.671 42.2229 184.864 40.6598C176.058 39.0966 168.538 35.4001 162.306 29.5701C156.073 23.7401 151.571 16.1461 148.799 6.78802C144.345 -8.24628 145.792 -21.1069 153.14 -31.7937C160.641 -42.526 171.908 -50.1188 186.942 -54.5722L201.67 -58.9347L191.786 -92.3016L112.166 -68.7169L103.236 -98.8622L305.049 -158.642L313.978 -128.497ZM255.068 -111.047L225.383 -102.253L235.267 -68.8866L264.952 -77.6797L255.068 -111.047ZM210.395 -29.4797L196.588 -25.3899C190.912 -23.7085 186.741 -20.8878 184.076 -16.9278C181.411 -12.9678 180.851 -8.37986 182.396 -3.16388C183.896 1.89869 186.534 5.45567 190.313 7.50708C194.199 9.35963 198.52 9.58155 203.276 8.17283C208.645 6.58235 212.264 3.59117 214.134 -0.800692C215.958 -5.34597 215.962 -10.6868 214.144 -16.8233L210.395 -29.4797ZM370.165 7.29758L328.653 -132.844L306.102 -126.164L297.173 -156.309L378.404 -180.371L387.333 -150.225L364.782 -143.545L406.294 -3.40412L370.165 7.29758Z" fill="#8C95A2" fill-opacity="0.04"/>
<path d="M183.2 126.02C192.627 126.02 200.187 128.867 205.88 134.56C211.667 140.253 214.56 148.84 214.56 160.32V204H182.92V165.78C182.92 157.007 179.793 152.62 173.54 152.62C169.993 152.62 167.1 153.88 164.86 156.4C162.713 158.827 161.64 162.7 161.64 168.02V204H130V127.42H160.1V134.98C163.087 131.993 166.54 129.753 170.46 128.26C174.38 126.767 178.627 126.02 183.2 126.02ZM228.301 127.42H259.941V204H228.301V127.42ZM244.121 121.26C238.427 121.26 233.807 119.767 230.261 116.78C226.807 113.7 225.081 109.827 225.081 105.16C225.081 100.493 226.807 96.6667 230.261 93.68C233.807 90.6 238.427 89.06 244.121 89.06C249.907 89.06 254.527 90.5067 257.981 93.4C261.434 96.2933 263.161 100.027 263.161 104.6C263.161 109.453 261.434 113.467 257.981 116.64C254.527 119.72 249.907 121.26 244.121 121.26ZM327.165 126.02C336.592 126.02 344.152 128.867 349.845 134.56C355.632 140.253 358.525 148.84 358.525 160.32V204H326.885V165.78C326.885 157.007 323.758 152.62 317.505 152.62C313.958 152.62 311.065 153.88 308.825 156.4C306.678 158.827 305.605 162.7 305.605 168.02V204H273.965V127.42H304.065V134.98C307.052 131.993 310.505 129.753 314.425 128.26C318.345 126.767 322.592 126.02 327.165 126.02ZM371.566 232.56C363.446 232.56 356.959 231.3 352.106 228.78L359.666 206.8C361.906 208.013 364.286 208.62 366.806 208.62C368.766 208.62 370.352 207.873 371.566 206.38C372.779 204.98 373.386 202.787 373.386 199.8V127.42H405.026V200.08C405.026 210.067 402.039 217.953 396.066 223.74C390.186 229.62 382.019 232.56 371.566 232.56ZM389.206 121.26C383.512 121.26 378.892 119.767 375.346 116.78C371.892 113.7 370.166 109.827 370.166 105.16C370.166 100.493 371.892 96.6667 375.346 93.68C378.892 90.6 383.512 89.06 389.206 89.06C394.992 89.06 399.612 90.5067 403.066 93.4C406.519 96.2933 408.246 100.027 408.246 104.6C408.246 109.453 406.519 113.467 403.066 116.64C399.612 119.72 394.992 121.26 389.206 121.26ZM453.323 126.02C466.763 126.02 477.03 129.053 484.123 135.12C491.217 141.093 494.763 150.333 494.763 162.84V204H465.363V193.92C461.723 201.573 454.49 205.4 443.663 205.4C437.597 205.4 432.417 204.373 428.123 202.32C423.923 200.173 420.703 197.327 418.463 193.78C416.317 190.14 415.243 186.08 415.243 181.6C415.243 174.04 418.137 168.3 423.923 164.38C429.71 160.46 438.483 158.5 450.243 158.5H462.983C461.957 152.527 457.15 149.54 448.563 149.54C445.11 149.54 441.61 150.1 438.063 151.22C434.517 152.247 431.483 153.693 428.963 155.56L418.883 134.7C423.27 131.993 428.543 129.893 434.703 128.4C440.957 126.813 447.163 126.02 453.323 126.02ZM453.183 186.36C455.423 186.36 457.43 185.753 459.203 184.54C460.977 183.327 462.283 181.507 463.123 179.08V173.76H455.283C448.843 173.76 445.623 175.907 445.623 180.2C445.623 181.973 446.277 183.467 447.583 184.68C448.983 185.8 450.85 186.36 453.183 186.36ZM542.738 126.02C556.178 126.02 566.444 129.053 573.538 135.12C580.631 141.093 584.178 150.333 584.178 162.84V204H554.778V193.92C551.138 201.573 543.904 205.4 533.078 205.4C527.011 205.4 521.831 204.373 517.538 202.32C513.338 200.173 510.118 197.327 507.878 193.78C505.731 190.14 504.658 186.08 504.658 181.6C504.658 174.04 507.551 168.3 513.338 164.38C519.124 160.46 527.898 158.5 539.658 158.5H552.398C551.371 152.527 546.564 149.54 537.978 149.54C534.524 149.54 531.024 150.1 527.478 151.22C523.931 152.247 520.898 153.693 518.378 155.56L508.298 134.7C512.684 131.993 517.958 129.893 524.118 128.4C530.371 126.813 536.578 126.02 542.738 126.02ZM542.597 186.36C544.838 186.36 546.844 185.753 548.618 184.54C550.391 183.327 551.698 181.507 552.538 179.08V173.76H544.698C538.258 173.76 535.038 175.907 535.038 180.2C535.038 181.973 535.691 183.467 536.998 184.68C538.398 185.8 540.264 186.36 542.597 186.36ZM627.812 205.4C621.278 205.4 614.838 204.7 608.492 203.3C602.145 201.9 597.012 200.08 593.092 197.84L601.772 176.98C605.318 179.127 609.518 180.807 614.372 182.02C619.225 183.233 623.938 183.84 628.512 183.84C632.152 183.84 634.672 183.56 636.072 183C637.565 182.347 638.312 181.413 638.312 180.2C638.312 178.987 637.378 178.147 635.512 177.68C633.738 177.213 630.798 176.747 626.692 176.28C620.438 175.533 615.118 174.6 610.732 173.48C606.345 172.267 602.472 169.98 599.112 166.62C595.845 163.26 594.212 158.453 594.212 152.2C594.212 147.253 595.705 142.82 598.692 138.9C601.678 134.98 606.112 131.853 611.992 129.52C617.965 127.187 625.105 126.02 633.412 126.02C639.198 126.02 644.845 126.58 650.352 127.7C655.952 128.727 660.712 130.267 664.632 132.32L655.952 153.18C649.232 149.447 641.858 147.58 633.832 147.58C626.925 147.58 623.472 148.793 623.472 151.22C623.472 152.433 624.405 153.32 626.272 153.88C628.138 154.347 631.078 154.813 635.092 155.28C641.345 156.027 646.618 157.007 650.912 158.22C655.298 159.433 659.125 161.72 662.392 165.08C665.752 168.44 667.432 173.247 667.432 179.5C667.432 184.26 665.938 188.6 662.952 192.52C659.965 196.44 655.485 199.567 649.512 201.9C643.538 204.233 636.305 205.4 627.812 205.4ZM778.372 126.02C787.612 126.02 794.985 128.867 800.492 134.56C806.092 140.253 808.892 148.84 808.892 160.32V204H777.252V165.78C777.252 157.007 774.405 152.62 768.712 152.62C765.725 152.62 763.298 153.74 761.432 155.98C759.658 158.22 758.772 161.767 758.772 166.62V204H727.132V165.78C727.132 157.007 724.285 152.62 718.592 152.62C715.605 152.62 713.178 153.74 711.312 155.98C709.538 158.22 708.652 161.767 708.652 166.62V204H677.012V127.42H707.112V134.56C712.805 128.867 720.038 126.02 728.812 126.02C733.945 126.02 738.565 127 742.672 128.96C746.778 130.827 750.138 133.72 752.752 137.64C755.832 133.907 759.565 131.06 763.952 129.1C768.338 127.047 773.145 126.02 778.372 126.02ZM864.444 205.4C855.951 205.4 848.298 203.72 841.484 200.36C834.764 196.907 829.491 192.193 825.664 186.22C821.838 180.153 819.924 173.293 819.924 165.64C819.924 157.987 821.838 151.173 825.664 145.2C829.491 139.133 834.764 134.42 841.484 131.06C848.298 127.7 855.951 126.02 864.444 126.02C873.031 126.02 880.684 127.7 887.404 131.06C894.218 134.42 899.491 139.133 903.224 145.2C907.051 151.173 908.964 157.987 908.964 165.64C908.964 173.293 907.051 180.153 903.224 186.22C899.491 192.193 894.218 196.907 887.404 200.36C880.684 203.72 873.031 205.4 864.444 205.4ZM864.444 180.76C868.084 180.76 871.071 179.453 873.404 176.84C875.738 174.133 876.904 170.4 876.904 165.64C876.904 160.88 875.738 157.193 873.404 154.58C871.071 151.967 868.084 150.66 864.444 150.66C860.804 150.66 857.818 151.967 855.484 154.58C853.151 157.193 851.984 160.88 851.984 165.64C851.984 170.4 853.151 174.133 855.484 176.84C857.818 179.453 860.804 180.76 864.444 180.76ZM955.547 180.48L950.507 185.94V204H918.867V100.12H950.507V149.68L972.487 127.42H1009.87L978.227 160.6L1012.39 204H974.167L955.547 180.48ZM1096.6 165.64C1096.6 166.107 1096.46 168.58 1096.18 173.06H1042.98C1044.1 175.953 1045.96 178.193 1048.58 179.78C1051.19 181.273 1054.46 182.02 1058.38 182.02C1061.74 182.02 1064.54 181.6 1066.78 180.76C1069.11 179.92 1071.63 178.473 1074.34 176.42L1090.86 193.08C1083.39 201.293 1072.24 205.4 1057.4 205.4C1048.16 205.4 1040.04 203.72 1033.04 200.36C1026.04 196.907 1020.62 192.147 1016.8 186.08C1012.97 180.013 1011.06 173.2 1011.06 165.64C1011.06 157.987 1012.92 151.173 1016.66 145.2C1020.48 139.133 1025.66 134.42 1032.2 131.06C1038.82 127.7 1046.24 126.02 1054.46 126.02C1062.2 126.02 1069.25 127.56 1075.6 130.64C1082.04 133.72 1087.12 138.247 1090.86 144.22C1094.68 150.193 1096.6 157.333 1096.6 165.64ZM1054.74 147.58C1051.47 147.58 1048.76 148.467 1046.62 150.24C1044.47 152.013 1043.07 154.533 1042.42 157.8H1067.06C1066.4 154.627 1065 152.153 1062.86 150.38C1060.71 148.513 1058 147.58 1054.74 147.58Z" fill="#0AC280"/>
</g>
<defs>
<clipPath id="clip0_1_2">
<rect width="1200" height="300" rx="8" fill="white"/>
</clipPath>
</defs>
</svg>
